<?xml version="1.0" encoding="utf-8" standalone="no"?>
<!DOCTYPE svg PUBLIC "-//W3C//DTD SVG 1.1//EN"
  "http://www.w3.org/Graphics/SVG/1.1/DTD/svg11.dtd">
<svg xmlns:xlink="http://www.w3.org/1999/xlink" width="1068.719938pt" height="856.179875pt" viewBox="0 0 1068.719938 856.179875" xmlns="http://www.w3.org/2000/svg" version="1.1">
 <metadata>
  <rdf:RDF xmlns:dc="http://purl.org/dc/elements/1.1/" xmlns:cc="http://creativecommons.org/ns#" xmlns:rdf="http://www.w3.org/1999/02/22-rdf-syntax-ns#">
   <cc:Work>
    <dc:type rdf:resource="http://purl.org/dc/dcmitype/StillImage"/>
    <dc:date>2025-05-12T21:37:26.536077</dc:date>
    <dc:format>image/svg+xml</dc:format>
    <dc:creator>
     <cc:Agent>
      <dc:title>Matplotlib v3.10.3, https://matplotlib.org/</dc:title>
     </cc:Agent>
    </dc:creator>
   </cc:Work>
  </rdf:RDF>
 </metadata>
 <defs>
  <style type="text/css">*{stroke-linejoin: round; stroke-linecap: butt}</style>
 </defs>
 <g id="figure_1">
  <g id="patch_1">
   <path d="M 0 856.179875 
L 1068.719938 856.179875 
L 1068.719938 0 
L 0 0 
z
" style="fill: #ffffff"/>
  </g>
  <g id="axes_1">
   <g id="patch_2">
    <path d="M 51.76375 409.20175 
L 814.56875 409.20175 
L 814.56875 24.14175 
L 51.76375 24.14175 
z
" style="fill: #eeeeee"/>
   </g>
   <g id="patch_3">
    <path d="M 86.436705 409.20175 
L 138.187383 409.20175 
L 138.187383 70.956535 
L 86.436705 70.956535 
z
" clip-path="url(#p02253542a9)" style="fill: #348abd; opacity: 0.7"/>
   </g>
   <g id="patch_4">
    <path d="M 345.190097 409.20175 
L 396.940775 409.20175 
L 396.940775 42.47794 
L 345.190097 42.47794 
z
" clip-path="url(#p02253542a9)" style="fill: #348abd; opacity: 0.7"/>
   </g>
   <g id="patch_5">
    <path d="M 603.943489 409.20175 
L 655.694167 409.20175 
L 655.694167 263.920435 
L 603.943489 263.920435 
z
" clip-path="url(#p02253542a9)" style="fill: #348abd; opacity: 0.7"/>
   </g>
   <g id="patch_6">
    <path d="M 86.436705 409.20175 
L 138.187383 409.20175 
L 138.187383 309.946396 
L 86.436705 309.946396 
z
" clip-path="url(#p02253542a9)" style="fill: #246184; opacity: 0.9"/>
   </g>
   <g id="patch_7">
    <path d="M 345.190097 409.20175 
L 396.940775 409.20175 
L 396.940775 301.081547 
L 345.190097 301.081547 
z
" clip-path="url(#p02253542a9)" style="fill: #246184; opacity: 0.9"/>
   </g>
   <g id="patch_8">
    <path d="M 603.943489 409.20175 
L 655.694167 409.20175 
L 655.694167 372.405662 
L 603.943489 372.405662 
z
" clip-path="url(#p02253542a9)" style="fill: #246184; opacity: 0.9"/>
   </g>
   <g id="patch_9">
    <path d="M 148.537519 409.20175 
L 200.288197 409.20175 
L 200.288197 68.245923 
L 148.537519 68.245923 
z
" clip-path="url(#p02253542a9)" style="fill: #a60628; opacity: 0.7"/>
   </g>
   <g id="patch_10">
    <path d="M 407.290911 409.20175 
L 459.041589 409.20175 
L 459.041589 85.936429 
L 407.290911 85.936429 
z
" clip-path="url(#p02253542a9)" style="fill: #a60628; opacity: 0.7"/>
   </g>
   <g id="patch_11">
    <path d="M 666.044303 409.20175 
L 717.794981 409.20175 
L 717.794981 271.487905 
L 666.044303 271.487905 
z
" clip-path="url(#p02253542a9)" style="fill: #a60628; opacity: 0.7"/>
   </g>
   <g id="patch_12">
    <path d="M 148.537519 409.20175 
L 200.288197 409.20175 
L 200.288197 287.365172 
L 148.537519 287.365172 
z
" clip-path="url(#p02253542a9)" style="fill: #74041c; opacity: 0.9"/>
   </g>
   <g id="patch_13">
    <path d="M 407.290911 409.20175 
L 459.041589 409.20175 
L 459.041589 279.713973 
L 407.290911 279.713973 
z
" clip-path="url(#p02253542a9)" style="fill: #74041c; opacity: 0.9"/>
   </g>
   <g id="patch_14">
    <path d="M 666.044303 409.20175 
L 717.794981 409.20175 
L 717.794981 360.455451 
L 666.044303 360.455451 
z
" clip-path="url(#p02253542a9)" style="fill: #74041c; opacity: 0.9"/>
   </g>
   <g id="patch_15">
    <path d="M 210.638333 409.20175 
L 262.389011 409.20175 
L 262.389011 118.336565 
L 210.638333 118.336565 
z
" clip-path="url(#p02253542a9)" style="fill: #7a68a6; opacity: 0.7"/>
   </g>
   <g id="patch_16">
    <path d="M 469.391725 409.20175 
L 521.142403 409.20175 
L 521.142403 108.265523 
L 469.391725 108.265523 
z
" clip-path="url(#p02253542a9)" style="fill: #7a68a6; opacity: 0.7"/>
   </g>
   <g id="patch_17">
    <path d="M 728.145117 409.20175 
L 779.895795 409.20175 
L 779.895795 283.52513 
L 728.145117 283.52513 
z
" clip-path="url(#p02253542a9)" style="fill: #7a68a6; opacity: 0.7"/>
   </g>
   <g id="patch_18">
    <path d="M 210.638333 409.20175 
L 262.389011 409.20175 
L 262.389011 326.921999 
L 210.638333 326.921999 
z
" clip-path="url(#p02253542a9)" style="fill: #554974; opacity: 0.9"/>
   </g>
   <g id="patch_19">
    <path d="M 469.391725 409.20175 
L 521.142403 409.20175 
L 521.142403 322.95039 
L 469.391725 322.95039 
z
" clip-path="url(#p02253542a9)" style="fill: #554974; opacity: 0.9"/>
   </g>
   <g id="patch_20">
    <path d="M 728.145117 409.20175 
L 779.895795 409.20175 
L 779.895795 372.866401 
L 728.145117 372.866401 
z
" clip-path="url(#p02253542a9)" style="fill: #554974; opacity: 0.9"/>
   </g>
   <g id="matplotlib.axis_1">
    <g id="xtick_1">
     <g id="line2d_1">
      <path d="M 174.412858 409.20175 
L 174.412858 24.14175 
" clip-path="url(#p02253542a9)" style="fill: none; stroke-dasharray: 1.85,0.8; stroke-dashoffset: 0; stroke: #b2b2b2; stroke-opacity: 0.3; stroke-width: 0.5"/>
     </g>
     <g id="line2d_2">
      <defs>
       <path id="m71dcf0552b" d="M 0 0 
L 0 -3.5 
" style="stroke: #000000; stroke-width: 0.8"/>
      </defs>
      <g>
       <use xlink:href="#m71dcf0552b" x="174.412858" y="409.20175" style="stroke: #000000; stroke-width: 0.8"/>
      </g>
     </g>
     <g id="text_1">
      <!-- Macos Ci -->
      <g transform="translate(152.15192 420.300187) scale(0.1 -0.1)">
       <defs>
        <path id="DejaVuSans-4d" d="M 628 4666 
L 1569 4666 
L 2759 1491 
L 3956 4666 
L 4897 4666 
L 4897 0 
L 4281 0 
L 4281 4097 
L 3078 897 
L 2444 897 
L 1241 4097 
L 1241 0 
L 628 0 
L 628 4666 
z
" transform="scale(0.015625)"/>
        <path id="DejaVuSans-61" d="M 2194 1759 
Q 1497 1759 1228 1600 
Q 959 1441 959 1056 
Q 959 750 1161 570 
Q 1363 391 1709 391 
Q 2188 391 2477 730 
Q 2766 1069 2766 1631 
L 2766 1759 
L 2194 1759 
z
M 3341 1997 
L 3341 0 
L 2766 0 
L 2766 531 
Q 2569 213 2275 61 
Q 1981 -91 1556 -91 
Q 1019 -91 701 211 
Q 384 513 384 1019 
Q 384 1609 779 1909 
Q 1175 2209 1959 2209 
L 2766 2209 
L 2766 2266 
Q 2766 2663 2505 2880 
Q 2244 3097 1772 3097 
Q 1472 3097 1187 3025 
Q 903 2953 641 2809 
L 641 3341 
Q 956 3463 1253 3523 
Q 1550 3584 1831 3584 
Q 2591 3584 2966 3190 
Q 3341 2797 3341 1997 
z
" transform="scale(0.015625)"/>
        <path id="DejaVuSans-63" d="M 3122 3366 
L 3122 2828 
Q 2878 2963 2633 3030 
Q 2388 3097 2138 3097 
Q 1578 3097 1268 2742 
Q 959 2388 959 1747 
Q 959 1106 1268 751 
Q 1578 397 2138 397 
Q 2388 397 2633 464 
Q 2878 531 3122 666 
L 3122 134 
Q 2881 22 2623 -34 
Q 2366 -91 2075 -91 
Q 1284 -91 818 406 
Q 353 903 353 1747 
Q 353 2603 823 3093 
Q 1294 3584 2113 3584 
Q 2378 3584 2631 3529 
Q 2884 3475 3122 3366 
z
" transform="scale(0.015625)"/>
        <path id="DejaVuSans-6f" d="M 1959 3097 
Q 1497 3097 1228 2736 
Q 959 2375 959 1747 
Q 959 1119 1226 758 
Q 1494 397 1959 397 
Q 2419 397 2687 759 
Q 2956 1122 2956 1747 
Q 2956 2369 2687 2733 
Q 2419 3097 1959 3097 
z
M 1959 3584 
Q 2709 3584 3137 3096 
Q 3566 2609 3566 1747 
Q 3566 888 3137 398 
Q 2709 -91 1959 -91 
Q 1206 -91 779 398 
Q 353 888 353 1747 
Q 353 2609 779 3096 
Q 1206 3584 1959 3584 
z
" transform="scale(0.015625)"/>
        <path id="DejaVuSans-73" d="M 2834 3397 
L 2834 2853 
Q 2591 2978 2328 3040 
Q 2066 3103 1784 3103 
Q 1356 3103 1142 2972 
Q 928 2841 928 2578 
Q 928 2378 1081 2264 
Q 1234 2150 1697 2047 
L 1894 2003 
Q 2506 1872 2764 1633 
Q 3022 1394 3022 966 
Q 3022 478 2636 193 
Q 2250 -91 1575 -91 
Q 1294 -91 989 -36 
Q 684 19 347 128 
L 347 722 
Q 666 556 975 473 
Q 1284 391 1588 391 
Q 1994 391 2212 530 
Q 2431 669 2431 922 
Q 2431 1156 2273 1281 
Q 2116 1406 1581 1522 
L 1381 1569 
Q 847 1681 609 1914 
Q 372 2147 372 2553 
Q 372 3047 722 3315 
Q 1072 3584 1716 3584 
Q 2034 3584 2315 3537 
Q 2597 3491 2834 3397 
z
" transform="scale(0.015625)"/>
        <path id="DejaVuSans-20" transform="scale(0.015625)"/>
        <path id="DejaVuSans-43" d="M 4122 4306 
L 4122 3641 
Q 3803 3938 3442 4084 
Q 3081 4231 2675 4231 
Q 1875 4231 1450 3742 
Q 1025 3253 1025 2328 
Q 1025 1406 1450 917 
Q 1875 428 2675 428 
Q 3081 428 3442 575 
Q 3803 722 4122 1019 
L 4122 359 
Q 3791 134 3420 21 
Q 3050 -91 2638 -91 
Q 1578 -91 968 557 
Q 359 1206 359 2328 
Q 359 3453 968 4101 
Q 1578 4750 2638 4750 
Q 3056 4750 3426 4639 
Q 3797 4528 4122 4306 
z
" transform="scale(0.015625)"/>
        <path id="DejaVuSans-69" d="M 603 3500 
L 1178 3500 
L 1178 0 
L 603 0 
L 603 3500 
z
M 603 4863 
L 1178 4863 
L 1178 4134 
L 603 4134 
L 603 4863 
z
" transform="scale(0.015625)"/>
       </defs>
       <use xlink:href="#DejaVuSans-4d"/>
       <use xlink:href="#DejaVuSans-61" transform="translate(86.279297 0)"/>
       <use xlink:href="#DejaVuSans-63" transform="translate(147.558594 0)"/>
       <use xlink:href="#DejaVuSans-6f" transform="translate(202.539062 0)"/>
       <use xlink:href="#DejaVuSans-73" transform="translate(263.720703 0)"/>
       <use xlink:href="#DejaVuSans-20" transform="translate(315.820312 0)"/>
       <use xlink:href="#DejaVuSans-43" transform="translate(347.607422 0)"/>
       <use xlink:href="#DejaVuSans-69" transform="translate(417.431641 0)"/>
      </g>
     </g>
    </g>
    <g id="xtick_2">
     <g id="line2d_3">
      <path d="M 433.16625 409.20175 
L 433.16625 24.14175 
" clip-path="url(#p02253542a9)" style="fill: none; stroke-dasharray: 1.85,0.8; stroke-dashoffset: 0; stroke: #b2b2b2; stroke-opacity: 0.3; stroke-width: 0.5"/>
     </g>
     <g id="line2d_4">
      <g>
       <use xlink:href="#m71dcf0552b" x="433.16625" y="409.20175" style="stroke: #000000; stroke-width: 0.8"/>
      </g>
     </g>
     <g id="text_2">
      <!-- Ubuntu Ci -->
      <g transform="translate(408.396719 420.300187) scale(0.1 -0.1)">
       <defs>
        <path id="DejaVuSans-55" d="M 556 4666 
L 1191 4666 
L 1191 1831 
Q 1191 1081 1462 751 
Q 1734 422 2344 422 
Q 2950 422 3222 751 
Q 3494 1081 3494 1831 
L 3494 4666 
L 4128 4666 
L 4128 1753 
Q 4128 841 3676 375 
Q 3225 -91 2344 -91 
Q 1459 -91 1007 375 
Q 556 841 556 1753 
L 556 4666 
z
" transform="scale(0.015625)"/>
        <path id="DejaVuSans-62" d="M 3116 1747 
Q 3116 2381 2855 2742 
Q 2594 3103 2138 3103 
Q 1681 3103 1420 2742 
Q 1159 2381 1159 1747 
Q 1159 1113 1420 752 
Q 1681 391 2138 391 
Q 2594 391 2855 752 
Q 3116 1113 3116 1747 
z
M 1159 2969 
Q 1341 3281 1617 3432 
Q 1894 3584 2278 3584 
Q 2916 3584 3314 3078 
Q 3713 2572 3713 1747 
Q 3713 922 3314 415 
Q 2916 -91 2278 -91 
Q 1894 -91 1617 61 
Q 1341 213 1159 525 
L 1159 0 
L 581 0 
L 581 4863 
L 1159 4863 
L 1159 2969 
z
" transform="scale(0.015625)"/>
        <path id="DejaVuSans-75" d="M 544 1381 
L 544 3500 
L 1119 3500 
L 1119 1403 
Q 1119 906 1312 657 
Q 1506 409 1894 409 
Q 2359 409 2629 706 
Q 2900 1003 2900 1516 
L 2900 3500 
L 3475 3500 
L 3475 0 
L 2900 0 
L 2900 538 
Q 2691 219 2414 64 
Q 2138 -91 1772 -91 
Q 1169 -91 856 284 
Q 544 659 544 1381 
z
M 1991 3584 
L 1991 3584 
z
" transform="scale(0.015625)"/>
        <path id="DejaVuSans-6e" d="M 3513 2113 
L 3513 0 
L 2938 0 
L 2938 2094 
Q 2938 2591 2744 2837 
Q 2550 3084 2163 3084 
Q 1697 3084 1428 2787 
Q 1159 2491 1159 1978 
L 1159 0 
L 581 0 
L 581 3500 
L 1159 3500 
L 1159 2956 
Q 1366 3272 1645 3428 
Q 1925 3584 2291 3584 
Q 2894 3584 3203 3211 
Q 3513 2838 3513 2113 
z
" transform="scale(0.015625)"/>
        <path id="DejaVuSans-74" d="M 1172 4494 
L 1172 3500 
L 2356 3500 
L 2356 3053 
L 1172 3053 
L 1172 1153 
Q 1172 725 1289 603 
Q 1406 481 1766 481 
L 2356 481 
L 2356 0 
L 1766 0 
Q 1100 0 847 248 
Q 594 497 594 1153 
L 594 3053 
L 172 3053 
L 172 3500 
L 594 3500 
L 594 4494 
L 1172 4494 
z
" transform="scale(0.015625)"/>
       </defs>
       <use xlink:href="#DejaVuSans-55"/>
       <use xlink:href="#DejaVuSans-62" transform="translate(73.193359 0)"/>
       <use xlink:href="#DejaVuSans-75" transform="translate(136.669922 0)"/>
       <use xlink:href="#DejaVuSans-6e" transform="translate(200.048828 0)"/>
       <use xlink:href="#DejaVuSans-74" transform="translate(263.427734 0)"/>
       <use xlink:href="#DejaVuSans-75" transform="translate(302.636719 0)"/>
       <use xlink:href="#DejaVuSans-20" transform="translate(366.015625 0)"/>
       <use xlink:href="#DejaVuSans-43" transform="translate(397.802734 0)"/>
       <use xlink:href="#DejaVuSans-69" transform="translate(467.626953 0)"/>
      </g>
     </g>
    </g>
    <g id="xtick_3">
     <g id="line2d_5">
      <path d="M 691.919642 409.20175 
L 691.919642 24.14175 
" clip-path="url(#p02253542a9)" style="fill: none; stroke-dasharray: 1.85,0.8; stroke-dashoffset: 0; stroke: #b2b2b2; stroke-opacity: 0.3; stroke-width: 0.5"/>
     </g>
     <g id="line2d_6">
      <g>
       <use xlink:href="#m71dcf0552b" x="691.919642" y="409.20175" style="stroke: #000000; stroke-width: 0.8"/>
      </g>
     </g>
     <g id="text_3">
      <!-- Macos Local -->
      <g transform="translate(661.579017 420.300187) scale(0.1 -0.1)">
       <defs>
        <path id="DejaVuSans-4c" d="M 628 4666 
L 1259 4666 
L 1259 531 
L 3531 531 
L 3531 0 
L 628 0 
L 628 4666 
z
" transform="scale(0.015625)"/>
        <path id="DejaVuSans-6c" d="M 603 4863 
L 1178 4863 
L 1178 0 
L 603 0 
L 603 4863 
z
" transform="scale(0.015625)"/>
       </defs>
       <use xlink:href="#DejaVuSans-4d"/>
       <use xlink:href="#DejaVuSans-61" transform="translate(86.279297 0)"/>
       <use xlink:href="#DejaVuSans-63" transform="translate(147.558594 0)"/>
       <use xlink:href="#DejaVuSans-6f" transform="translate(202.539062 0)"/>
       <use xlink:href="#DejaVuSans-73" transform="translate(263.720703 0)"/>
       <use xlink:href="#DejaVuSans-20" transform="translate(315.820312 0)"/>
       <use xlink:href="#DejaVuSans-4c" transform="translate(347.607422 0)"/>
       <use xlink:href="#DejaVuSans-6f" transform="translate(401.570312 0)"/>
       <use xlink:href="#DejaVuSans-63" transform="translate(462.751953 0)"/>
       <use xlink:href="#DejaVuSans-61" transform="translate(517.732422 0)"/>
       <use xlink:href="#DejaVuSans-6c" transform="translate(579.011719 0)"/>
      </g>
     </g>
    </g>
   </g>
   <g id="matplotlib.axis_2">
    <g id="ytick_1">
     <g id="line2d_7">
      <path d="M 51.76375 409.20175 
L 814.56875 409.20175 
" clip-path="url(#p02253542a9)" style="fill: none; stroke-dasharray: 1.85,0.8; stroke-dashoffset: 0; stroke: #b2b2b2; stroke-opacity: 0.3; stroke-width: 0.5"/>
     </g>
     <g id="line2d_8">
      <defs>
       <path id="m4e59f43c1e" d="M 0 0 
L 3.5 0 
" style="stroke: #000000; stroke-width: 0.8"/>
      </defs>
      <g>
       <use xlink:href="#m4e59f43c1e" x="51.76375" y="409.20175" style="stroke: #000000; stroke-width: 0.8"/>
      </g>
     </g>
     <g id="text_4">
      <!-- 0 -->
      <g transform="translate(41.90125 413.000969) scale(0.1 -0.1)">
       <defs>
        <path id="DejaVuSans-30" d="M 2034 4250 
Q 1547 4250 1301 3770 
Q 1056 3291 1056 2328 
Q 1056 1369 1301 889 
Q 1547 409 2034 409 
Q 2525 409 2770 889 
Q 3016 1369 3016 2328 
Q 3016 3291 2770 3770 
Q 2525 4250 2034 4250 
z
M 2034 4750 
Q 2819 4750 3233 4129 
Q 3647 3509 3647 2328 
Q 3647 1150 3233 529 
Q 2819 -91 2034 -91 
Q 1250 -91 836 529 
Q 422 1150 422 2328 
Q 422 3509 836 4129 
Q 1250 4750 2034 4750 
z
" transform="scale(0.015625)"/>
       </defs>
       <use xlink:href="#DejaVuSans-30"/>
      </g>
     </g>
    </g>
    <g id="ytick_2">
     <g id="line2d_9">
      <path d="M 51.76375 329.380368 
L 814.56875 329.380368 
" clip-path="url(#p02253542a9)" style="fill: none; stroke-dasharray: 1.85,0.8; stroke-dashoffset: 0; stroke: #b2b2b2; stroke-opacity: 0.3; stroke-width: 0.5"/>
     </g>
     <g id="line2d_10">
      <g>
       <use xlink:href="#m4e59f43c1e" x="51.76375" y="329.380368" style="stroke: #000000; stroke-width: 0.8"/>
      </g>
     </g>
     <g id="text_5">
      <!-- 1000 -->
      <g transform="translate(22.81375 333.179586) scale(0.1 -0.1)">
       <defs>
        <path id="DejaVuSans-31" d="M 794 531 
L 1825 531 
L 1825 4091 
L 703 3866 
L 703 4441 
L 1819 4666 
L 2450 4666 
L 2450 531 
L 3481 531 
L 3481 0 
L 794 0 
L 794 531 
z
" transform="scale(0.015625)"/>
       </defs>
       <use xlink:href="#DejaVuSans-31"/>
       <use xlink:href="#DejaVuSans-30" transform="translate(63.623047 0)"/>
       <use xlink:href="#DejaVuSans-30" transform="translate(127.246094 0)"/>
       <use xlink:href="#DejaVuSans-30" transform="translate(190.869141 0)"/>
      </g>
     </g>
    </g>
    <g id="ytick_3">
     <g id="line2d_11">
      <path d="M 51.76375 249.558985 
L 814.56875 249.558985 
" clip-path="url(#p02253542a9)" style="fill: none; stroke-dasharray: 1.85,0.8; stroke-dashoffset: 0; stroke: #b2b2b2; stroke-opacity: 0.3; stroke-width: 0.5"/>
     </g>
     <g id="line2d_12">
      <g>
       <use xlink:href="#m4e59f43c1e" x="51.76375" y="249.558985" style="stroke: #000000; stroke-width: 0.8"/>
      </g>
     </g>
     <g id="text_6">
      <!-- 2000 -->
      <g transform="translate(22.81375 253.358204) scale(0.1 -0.1)">
       <defs>
        <path id="DejaVuSans-32" d="M 1228 531 
L 3431 531 
L 3431 0 
L 469 0 
L 469 531 
Q 828 903 1448 1529 
Q 2069 2156 2228 2338 
Q 2531 2678 2651 2914 
Q 2772 3150 2772 3378 
Q 2772 3750 2511 3984 
Q 2250 4219 1831 4219 
Q 1534 4219 1204 4116 
Q 875 4013 500 3803 
L 500 4441 
Q 881 4594 1212 4672 
Q 1544 4750 1819 4750 
Q 2544 4750 2975 4387 
Q 3406 4025 3406 3419 
Q 3406 3131 3298 2873 
Q 3191 2616 2906 2266 
Q 2828 2175 2409 1742 
Q 1991 1309 1228 531 
z
" transform="scale(0.015625)"/>
       </defs>
       <use xlink:href="#DejaVuSans-32"/>
       <use xlink:href="#DejaVuSans-30" transform="translate(63.623047 0)"/>
       <use xlink:href="#DejaVuSans-30" transform="translate(127.246094 0)"/>
       <use xlink:href="#DejaVuSans-30" transform="translate(190.869141 0)"/>
      </g>
     </g>
    </g>
    <g id="ytick_4">
     <g id="line2d_13">
      <path d="M 51.76375 169.737603 
L 814.56875 169.737603 
" clip-path="url(#p02253542a9)" style="fill: none; stroke-dasharray: 1.85,0.8; stroke-dashoffset: 0; stroke: #b2b2b2; stroke-opacity: 0.3; stroke-width: 0.5"/>
     </g>
     <g id="line2d_14">
      <g>
       <use xlink:href="#m4e59f43c1e" x="51.76375" y="169.737603" style="stroke: #000000; stroke-width: 0.8"/>
      </g>
     </g>
     <g id="text_7">
      <!-- 3000 -->
      <g transform="translate(22.81375 173.536822) scale(0.1 -0.1)">
       <defs>
        <path id="DejaVuSans-33" d="M 2597 2516 
Q 3050 2419 3304 2112 
Q 3559 1806 3559 1356 
Q 3559 666 3084 287 
Q 2609 -91 1734 -91 
Q 1441 -91 1130 -33 
Q 819 25 488 141 
L 488 750 
Q 750 597 1062 519 
Q 1375 441 1716 441 
Q 2309 441 2620 675 
Q 2931 909 2931 1356 
Q 2931 1769 2642 2001 
Q 2353 2234 1838 2234 
L 1294 2234 
L 1294 2753 
L 1863 2753 
Q 2328 2753 2575 2939 
Q 2822 3125 2822 3475 
Q 2822 3834 2567 4026 
Q 2313 4219 1838 4219 
Q 1578 4219 1281 4162 
Q 984 4106 628 3988 
L 628 4550 
Q 988 4650 1302 4700 
Q 1616 4750 1894 4750 
Q 2613 4750 3031 4423 
Q 3450 4097 3450 3541 
Q 3450 3153 3228 2886 
Q 3006 2619 2597 2516 
z
" transform="scale(0.015625)"/>
       </defs>
       <use xlink:href="#DejaVuSans-33"/>
       <use xlink:href="#DejaVuSans-30" transform="translate(63.623047 0)"/>
       <use xlink:href="#DejaVuSans-30" transform="translate(127.246094 0)"/>
       <use xlink:href="#DejaVuSans-30" transform="translate(190.869141 0)"/>
      </g>
     </g>
    </g>
    <g id="ytick_5">
     <g id="line2d_15">
      <path d="M 51.76375 89.91622 
L 814.56875 89.91622 
" clip-path="url(#p02253542a9)" style="fill: none; stroke-dasharray: 1.85,0.8; stroke-dashoffset: 0; stroke: #b2b2b2; stroke-opacity: 0.3; stroke-width: 0.5"/>
     </g>
     <g id="line2d_16">
      <g>
       <use xlink:href="#m4e59f43c1e" x="51.76375" y="89.91622" style="stroke: #000000; stroke-width: 0.8"/>
      </g>
     </g>
     <g id="text_8">
      <!-- 4000 -->
      <g transform="translate(22.81375 93.715439) scale(0.1 -0.1)">
       <defs>
        <path id="DejaVuSans-34" d="M 2419 4116 
L 825 1625 
L 2419 1625 
L 2419 4116 
z
M 2253 4666 
L 3047 4666 
L 3047 1625 
L 3713 1625 
L 3713 1100 
L 3047 1100 
L 3047 0 
L 2419 0 
L 2419 1100 
L 313 1100 
L 313 1709 
L 2253 4666 
z
" transform="scale(0.015625)"/>
       </defs>
       <use xlink:href="#DejaVuSans-34"/>
       <use xlink:href="#DejaVuSans-30" transform="translate(63.623047 0)"/>
       <use xlink:href="#DejaVuSans-30" transform="translate(127.246094 0)"/>
       <use xlink:href="#DejaVuSans-30" transform="translate(190.869141 0)"/>
      </g>
     </g>
    </g>
    <g id="text_9">
     <!-- Time (seconds) -->
     <g transform="translate(16.318125 262.465812) rotate(-90) scale(0.12 -0.12)">
      <defs>
       <path id="DejaVuSans-54" d="M -19 4666 
L 3928 4666 
L 3928 4134 
L 2272 4134 
L 2272 0 
L 1638 0 
L 1638 4134 
L -19 4134 
L -19 4666 
z
" transform="scale(0.015625)"/>
       <path id="DejaVuSans-6d" d="M 3328 2828 
Q 3544 3216 3844 3400 
Q 4144 3584 4550 3584 
Q 5097 3584 5394 3201 
Q 5691 2819 5691 2113 
L 5691 0 
L 5113 0 
L 5113 2094 
Q 5113 2597 4934 2840 
Q 4756 3084 4391 3084 
Q 3944 3084 3684 2787 
Q 3425 2491 3425 1978 
L 3425 0 
L 2847 0 
L 2847 2094 
Q 2847 2600 2669 2842 
Q 2491 3084 2119 3084 
Q 1678 3084 1418 2786 
Q 1159 2488 1159 1978 
L 1159 0 
L 581 0 
L 581 3500 
L 1159 3500 
L 1159 2956 
Q 1356 3278 1631 3431 
Q 1906 3584 2284 3584 
Q 2666 3584 2933 3390 
Q 3200 3197 3328 2828 
z
" transform="scale(0.015625)"/>
       <path id="DejaVuSans-65" d="M 3597 1894 
L 3597 1613 
L 953 1613 
Q 991 1019 1311 708 
Q 1631 397 2203 397 
Q 2534 397 2845 478 
Q 3156 559 3463 722 
L 3463 178 
Q 3153 47 2828 -22 
Q 2503 -91 2169 -91 
Q 1331 -91 842 396 
Q 353 884 353 1716 
Q 353 2575 817 3079 
Q 1281 3584 2069 3584 
Q 2775 3584 3186 3129 
Q 3597 2675 3597 1894 
z
M 3022 2063 
Q 3016 2534 2758 2815 
Q 2500 3097 2075 3097 
Q 1594 3097 1305 2825 
Q 1016 2553 972 2059 
L 3022 2063 
z
" transform="scale(0.015625)"/>
       <path id="DejaVuSans-28" d="M 1984 4856 
Q 1566 4138 1362 3434 
Q 1159 2731 1159 2009 
Q 1159 1288 1364 580 
Q 1569 -128 1984 -844 
L 1484 -844 
Q 1016 -109 783 600 
Q 550 1309 550 2009 
Q 550 2706 781 3412 
Q 1013 4119 1484 4856 
L 1984 4856 
z
" transform="scale(0.015625)"/>
       <path id="DejaVuSans-64" d="M 2906 2969 
L 2906 4863 
L 3481 4863 
L 3481 0 
L 2906 0 
L 2906 525 
Q 2725 213 2448 61 
Q 2172 -91 1784 -91 
Q 1150 -91 751 415 
Q 353 922 353 1747 
Q 353 2572 751 3078 
Q 1150 3584 1784 3584 
Q 2172 3584 2448 3432 
Q 2725 3281 2906 2969 
z
M 947 1747 
Q 947 1113 1208 752 
Q 1469 391 1925 391 
Q 2381 391 2643 752 
Q 2906 1113 2906 1747 
Q 2906 2381 2643 2742 
Q 2381 3103 1925 3103 
Q 1469 3103 1208 2742 
Q 947 2381 947 1747 
z
" transform="scale(0.015625)"/>
       <path id="DejaVuSans-29" d="M 513 4856 
L 1013 4856 
Q 1481 4119 1714 3412 
Q 1947 2706 1947 2009 
Q 1947 1309 1714 600 
Q 1481 -109 1013 -844 
L 513 -844 
Q 928 -128 1133 580 
Q 1338 1288 1338 2009 
Q 1338 2731 1133 3434 
Q 928 4138 513 4856 
z
" transform="scale(0.015625)"/>
      </defs>
      <use xlink:href="#DejaVuSans-54"/>
      <use xlink:href="#DejaVuSans-69" transform="translate(57.958984 0)"/>
      <use xlink:href="#DejaVuSans-6d" transform="translate(85.742188 0)"/>
      <use xlink:href="#DejaVuSans-65" transform="translate(183.154297 0)"/>
      <use xlink:href="#DejaVuSans-20" transform="translate(244.677734 0)"/>
      <use xlink:href="#DejaVuSans-28" transform="translate(276.464844 0)"/>
      <use xlink:href="#DejaVuSans-73" transform="translate(315.478516 0)"/>
      <use xlink:href="#DejaVuSans-65" transform="translate(367.578125 0)"/>
      <use xlink:href="#DejaVuSans-63" transform="translate(429.101562 0)"/>
      <use xlink:href="#DejaVuSans-6f" transform="translate(484.082031 0)"/>
      <use xlink:href="#DejaVuSans-6e" transform="translate(545.263672 0)"/>
      <use xlink:href="#DejaVuSans-64" transform="translate(608.642578 0)"/>
      <use xlink:href="#DejaVuSans-73" transform="translate(672.119141 0)"/>
      <use xlink:href="#DejaVuSans-29" transform="translate(724.21875 0)"/>
     </g>
    </g>
   </g>
   <g id="patch_21">
    <path d="M 51.76375 409.20175 
L 51.76375 24.14175 
" style="fill: none; stroke: #bcbcbc; stroke-width: 0.8; stroke-linejoin: miter; stroke-linecap: square"/>
   </g>
   <g id="patch_22">
    <path d="M 814.56875 409.20175 
L 814.56875 24.14175 
" style="fill: none; stroke: #bcbcbc; stroke-width: 0.8; stroke-linejoin: miter; stroke-linecap: square"/>
   </g>
   <g id="patch_23">
    <path d="M 51.76375 409.20175 
L 814.56875 409.20175 
" style="fill: none; stroke: #bcbcbc; stroke-width: 0.8; stroke-linejoin: miter; stroke-linecap: square"/>
   </g>
   <g id="patch_24">
    <path d="M 51.76375 24.14175 
L 814.56875 24.14175 
" style="fill: none; stroke: #bcbcbc; stroke-width: 0.8; stroke-linejoin: miter; stroke-linecap: square"/>
   </g>
   <g id="text_10">
    <!-- Proof Generation Times -->
    <g transform="translate(348.697875 18.14175) scale(0.144 -0.144)">
     <defs>
      <path id="DejaVuSans-50" d="M 1259 4147 
L 1259 2394 
L 2053 2394 
Q 2494 2394 2734 2622 
Q 2975 2850 2975 3272 
Q 2975 3691 2734 3919 
Q 2494 4147 2053 4147 
L 1259 4147 
z
M 628 4666 
L 2053 4666 
Q 2838 4666 3239 4311 
Q 3641 3956 3641 3272 
Q 3641 2581 3239 2228 
Q 2838 1875 2053 1875 
L 1259 1875 
L 1259 0 
L 628 0 
L 628 4666 
z
" transform="scale(0.015625)"/>
      <path id="DejaVuSans-72" d="M 2631 2963 
Q 2534 3019 2420 3045 
Q 2306 3072 2169 3072 
Q 1681 3072 1420 2755 
Q 1159 2438 1159 1844 
L 1159 0 
L 581 0 
L 581 3500 
L 1159 3500 
L 1159 2956 
Q 1341 3275 1631 3429 
Q 1922 3584 2338 3584 
Q 2397 3584 2469 3576 
Q 2541 3569 2628 3553 
L 2631 2963 
z
" transform="scale(0.015625)"/>
      <path id="DejaVuSans-66" d="M 2375 4863 
L 2375 4384 
L 1825 4384 
Q 1516 4384 1395 4259 
Q 1275 4134 1275 3809 
L 1275 3500 
L 2222 3500 
L 2222 3053 
L 1275 3053 
L 1275 0 
L 697 0 
L 697 3053 
L 147 3053 
L 147 3500 
L 697 3500 
L 697 3744 
Q 697 4328 969 4595 
Q 1241 4863 1831 4863 
L 2375 4863 
z
" transform="scale(0.015625)"/>
      <path id="DejaVuSans-47" d="M 3809 666 
L 3809 1919 
L 2778 1919 
L 2778 2438 
L 4434 2438 
L 4434 434 
Q 4069 175 3628 42 
Q 3188 -91 2688 -91 
Q 1594 -91 976 548 
Q 359 1188 359 2328 
Q 359 3472 976 4111 
Q 1594 4750 2688 4750 
Q 3144 4750 3555 4637 
Q 3966 4525 4313 4306 
L 4313 3634 
Q 3963 3931 3569 4081 
Q 3175 4231 2741 4231 
Q 1884 4231 1454 3753 
Q 1025 3275 1025 2328 
Q 1025 1384 1454 906 
Q 1884 428 2741 428 
Q 3075 428 3337 486 
Q 3600 544 3809 666 
z
" transform="scale(0.015625)"/>
     </defs>
     <use xlink:href="#DejaVuSans-50"/>
     <use xlink:href="#DejaVuSans-72" transform="translate(58.552734 0)"/>
     <use xlink:href="#DejaVuSans-6f" transform="translate(97.416016 0)"/>
     <use xlink:href="#DejaVuSans-6f" transform="translate(158.597656 0)"/>
     <use xlink:href="#DejaVuSans-66" transform="translate(219.779297 0)"/>
     <use xlink:href="#DejaVuSans-20" transform="translate(254.984375 0)"/>
     <use xlink:href="#DejaVuSans-47" transform="translate(286.771484 0)"/>
     <use xlink:href="#DejaVuSans-65" transform="translate(364.261719 0)"/>
     <use xlink:href="#DejaVuSans-6e" transform="translate(425.785156 0)"/>
     <use xlink:href="#DejaVuSans-65" transform="translate(489.164062 0)"/>
     <use xlink:href="#DejaVuSans-72" transform="translate(550.6875 0)"/>
     <use xlink:href="#DejaVuSans-61" transform="translate(591.800781 0)"/>
     <use xlink:href="#DejaVuSans-74" transform="translate(653.080078 0)"/>
     <use xlink:href="#DejaVuSans-69" transform="translate(692.289062 0)"/>
     <use xlink:href="#DejaVuSans-6f" transform="translate(720.072266 0)"/>
     <use xlink:href="#DejaVuSans-6e" transform="translate(781.253906 0)"/>
     <use xlink:href="#DejaVuSans-20" transform="translate(844.632812 0)"/>
     <use xlink:href="#DejaVuSans-54" transform="translate(876.419922 0)"/>
     <use xlink:href="#DejaVuSans-69" transform="translate(934.378906 0)"/>
     <use xlink:href="#DejaVuSans-6d" transform="translate(962.162109 0)"/>
     <use xlink:href="#DejaVuSans-65" transform="translate(1059.574219 0)"/>
     <use xlink:href="#DejaVuSans-73" transform="translate(1121.097656 0)"/>
    </g>
   </g>
   <g id="legend_1">
    <g id="patch_25">
     <path d="M 859.709 120.2105 
L 1059.519938 120.2105 
Q 1061.519938 120.2105 1061.519938 118.2105 
L 1061.519938 31.14175 
Q 1061.519938 29.14175 1059.519938 29.14175 
L 859.709 29.14175 
Q 857.709 29.14175 857.709 31.14175 
L 857.709 118.2105 
Q 857.709 120.2105 859.709 120.2105 
z
" style="fill: #eeeeee; opacity: 0.8; stroke: #cccccc; stroke-width: 0.5; stroke-linejoin: miter"/>
    </g>
    <g id="patch_26">
     <path d="M 861.709 40.740188 
L 881.709 40.740188 
L 881.709 33.740188 
L 861.709 33.740188 
z
" style="fill: #348abd; opacity: 0.7"/>
    </g>
    <g id="text_11">
     <!-- 4 Credentials SELECT ALL -->
     <g transform="translate(889.709 40.740188) scale(0.1 -0.1)">
      <defs>
       <path id="DejaVuSans-53" d="M 3425 4513 
L 3425 3897 
Q 3066 4069 2747 4153 
Q 2428 4238 2131 4238 
Q 1616 4238 1336 4038 
Q 1056 3838 1056 3469 
Q 1056 3159 1242 3001 
Q 1428 2844 1947 2747 
L 2328 2669 
Q 3034 2534 3370 2195 
Q 3706 1856 3706 1288 
Q 3706 609 3251 259 
Q 2797 -91 1919 -91 
Q 1588 -91 1214 -16 
Q 841 59 441 206 
L 441 856 
Q 825 641 1194 531 
Q 1563 422 1919 422 
Q 2459 422 2753 634 
Q 3047 847 3047 1241 
Q 3047 1584 2836 1778 
Q 2625 1972 2144 2069 
L 1759 2144 
Q 1053 2284 737 2584 
Q 422 2884 422 3419 
Q 422 4038 858 4394 
Q 1294 4750 2059 4750 
Q 2388 4750 2728 4690 
Q 3069 4631 3425 4513 
z
" transform="scale(0.015625)"/>
       <path id="DejaVuSans-45" d="M 628 4666 
L 3578 4666 
L 3578 4134 
L 1259 4134 
L 1259 2753 
L 3481 2753 
L 3481 2222 
L 1259 2222 
L 1259 531 
L 3634 531 
L 3634 0 
L 628 0 
L 628 4666 
z
" transform="scale(0.015625)"/>
       <path id="DejaVuSans-41" d="M 2188 4044 
L 1331 1722 
L 3047 1722 
L 2188 4044 
z
M 1831 4666 
L 2547 4666 
L 4325 0 
L 3669 0 
L 3244 1197 
L 1141 1197 
L 716 0 
L 50 0 
L 1831 4666 
z
" transform="scale(0.015625)"/>
      </defs>
      <use xlink:href="#DejaVuSans-34"/>
      <use xlink:href="#DejaVuSans-20" transform="translate(63.623047 0)"/>
      <use xlink:href="#DejaVuSans-43" transform="translate(95.410156 0)"/>
      <use xlink:href="#DejaVuSans-72" transform="translate(165.234375 0)"/>
      <use xlink:href="#DejaVuSans-65" transform="translate(204.097656 0)"/>
      <use xlink:href="#DejaVuSans-64" transform="translate(265.621094 0)"/>
      <use xlink:href="#DejaVuSans-65" transform="translate(329.097656 0)"/>
      <use xlink:href="#DejaVuSans-6e" transform="translate(390.621094 0)"/>
      <use xlink:href="#DejaVuSans-74" transform="translate(454 0)"/>
      <use xlink:href="#DejaVuSans-69" transform="translate(493.208984 0)"/>
      <use xlink:href="#DejaVuSans-61" transform="translate(520.992188 0)"/>
      <use xlink:href="#DejaVuSans-6c" transform="translate(582.271484 0)"/>
      <use xlink:href="#DejaVuSans-73" transform="translate(610.054688 0)"/>
      <use xlink:href="#DejaVuSans-20" transform="translate(662.154297 0)"/>
      <use xlink:href="#DejaVuSans-53" transform="translate(693.941406 0)"/>
      <use xlink:href="#DejaVuSans-45" transform="translate(757.417969 0)"/>
      <use xlink:href="#DejaVuSans-4c" transform="translate(820.601562 0)"/>
      <use xlink:href="#DejaVuSans-45" transform="translate(876.314453 0)"/>
      <use xlink:href="#DejaVuSans-43" transform="translate(939.498047 0)"/>
      <use xlink:href="#DejaVuSans-54" transform="translate(1009.322266 0)"/>
      <use xlink:href="#DejaVuSans-20" transform="translate(1070.40625 0)"/>
      <use xlink:href="#DejaVuSans-41" transform="translate(1102.193359 0)"/>
      <use xlink:href="#DejaVuSans-4c" transform="translate(1170.601562 0)"/>
      <use xlink:href="#DejaVuSans-4c" transform="translate(1226.314453 0)"/>
     </g>
    </g>
    <g id="patch_27">
     <path d="M 861.709 55.418313 
L 881.709 55.418313 
L 881.709 48.418313 
L 861.709 48.418313 
z
" style="fill: #246184; opacity: 0.9"/>
    </g>
    <g id="text_12">
     <!-- 1 Credential SELECT ALL -->
     <g transform="translate(889.709 55.418313) scale(0.1 -0.1)">
      <use xlink:href="#DejaVuSans-31"/>
      <use xlink:href="#DejaVuSans-20" transform="translate(63.623047 0)"/>
      <use xlink:href="#DejaVuSans-43" transform="translate(95.410156 0)"/>
      <use xlink:href="#DejaVuSans-72" transform="translate(165.234375 0)"/>
      <use xlink:href="#DejaVuSans-65" transform="translate(204.097656 0)"/>
      <use xlink:href="#DejaVuSans-64" transform="translate(265.621094 0)"/>
      <use xlink:href="#DejaVuSans-65" transform="translate(329.097656 0)"/>
      <use xlink:href="#DejaVuSans-6e" transform="translate(390.621094 0)"/>
      <use xlink:href="#DejaVuSans-74" transform="translate(454 0)"/>
      <use xlink:href="#DejaVuSans-69" transform="translate(493.208984 0)"/>
      <use xlink:href="#DejaVuSans-61" transform="translate(520.992188 0)"/>
      <use xlink:href="#DejaVuSans-6c" transform="translate(582.271484 0)"/>
      <use xlink:href="#DejaVuSans-20" transform="translate(610.054688 0)"/>
      <use xlink:href="#DejaVuSans-53" transform="translate(641.841797 0)"/>
      <use xlink:href="#DejaVuSans-45" transform="translate(705.318359 0)"/>
      <use xlink:href="#DejaVuSans-4c" transform="translate(768.501953 0)"/>
      <use xlink:href="#DejaVuSans-45" transform="translate(824.214844 0)"/>
      <use xlink:href="#DejaVuSans-43" transform="translate(887.398438 0)"/>
      <use xlink:href="#DejaVuSans-54" transform="translate(957.222656 0)"/>
      <use xlink:href="#DejaVuSans-20" transform="translate(1018.306641 0)"/>
      <use xlink:href="#DejaVuSans-41" transform="translate(1050.09375 0)"/>
      <use xlink:href="#DejaVuSans-4c" transform="translate(1118.501953 0)"/>
      <use xlink:href="#DejaVuSans-4c" transform="translate(1174.214844 0)"/>
     </g>
    </g>
    <g id="patch_28">
     <path d="M 861.709 70.096438 
L 881.709 70.096438 
L 881.709 63.096438 
L 861.709 63.096438 
z
" style="fill: #a60628; opacity: 0.7"/>
    </g>
    <g id="text_13">
     <!-- 4 Credentials Can Drive -->
     <g transform="translate(889.709 70.096438) scale(0.1 -0.1)">
      <defs>
       <path id="DejaVuSans-44" d="M 1259 4147 
L 1259 519 
L 2022 519 
Q 2988 519 3436 956 
Q 3884 1394 3884 2338 
Q 3884 3275 3436 3711 
Q 2988 4147 2022 4147 
L 1259 4147 
z
M 628 4666 
L 1925 4666 
Q 3281 4666 3915 4102 
Q 4550 3538 4550 2338 
Q 4550 1131 3912 565 
Q 3275 0 1925 0 
L 628 0 
L 628 4666 
z
" transform="scale(0.015625)"/>
       <path id="DejaVuSans-76" d="M 191 3500 
L 800 3500 
L 1894 563 
L 2988 3500 
L 3597 3500 
L 2284 0 
L 1503 0 
L 191 3500 
z
" transform="scale(0.015625)"/>
      </defs>
      <use xlink:href="#DejaVuSans-34"/>
      <use xlink:href="#DejaVuSans-20" transform="translate(63.623047 0)"/>
      <use xlink:href="#DejaVuSans-43" transform="translate(95.410156 0)"/>
      <use xlink:href="#DejaVuSans-72" transform="translate(165.234375 0)"/>
      <use xlink:href="#DejaVuSans-65" transform="translate(204.097656 0)"/>
      <use xlink:href="#DejaVuSans-64" transform="translate(265.621094 0)"/>
      <use xlink:href="#DejaVuSans-65" transform="translate(329.097656 0)"/>
      <use xlink:href="#DejaVuSans-6e" transform="translate(390.621094 0)"/>
      <use xlink:href="#DejaVuSans-74" transform="translate(454 0)"/>
      <use xlink:href="#DejaVuSans-69" transform="translate(493.208984 0)"/>
      <use xlink:href="#DejaVuSans-61" transform="translate(520.992188 0)"/>
      <use xlink:href="#DejaVuSans-6c" transform="translate(582.271484 0)"/>
      <use xlink:href="#DejaVuSans-73" transform="translate(610.054688 0)"/>
      <use xlink:href="#DejaVuSans-20" transform="translate(662.154297 0)"/>
      <use xlink:href="#DejaVuSans-43" transform="translate(693.941406 0)"/>
      <use xlink:href="#DejaVuSans-61" transform="translate(763.765625 0)"/>
      <use xlink:href="#DejaVuSans-6e" transform="translate(825.044922 0)"/>
      <use xlink:href="#DejaVuSans-20" transform="translate(888.423828 0)"/>
      <use xlink:href="#DejaVuSans-44" transform="translate(920.210938 0)"/>
      <use xlink:href="#DejaVuSans-72" transform="translate(997.212891 0)"/>
      <use xlink:href="#DejaVuSans-69" transform="translate(1038.326172 0)"/>
      <use xlink:href="#DejaVuSans-76" transform="translate(1066.109375 0)"/>
      <use xlink:href="#DejaVuSans-65" transform="translate(1125.289062 0)"/>
     </g>
    </g>
    <g id="patch_29">
     <path d="M 861.709 84.774563 
L 881.709 84.774563 
L 881.709 77.774563 
L 861.709 77.774563 
z
" style="fill: #74041c; opacity: 0.9"/>
    </g>
    <g id="text_14">
     <!-- 1 Credential Can Drive -->
     <g transform="translate(889.709 84.774563) scale(0.1 -0.1)">
      <use xlink:href="#DejaVuSans-31"/>
      <use xlink:href="#DejaVuSans-20" transform="translate(63.623047 0)"/>
      <use xlink:href="#DejaVuSans-43" transform="translate(95.410156 0)"/>
      <use xlink:href="#DejaVuSans-72" transform="translate(165.234375 0)"/>
      <use xlink:href="#DejaVuSans-65" transform="translate(204.097656 0)"/>
      <use xlink:href="#DejaVuSans-64" transform="translate(265.621094 0)"/>
      <use xlink:href="#DejaVuSans-65" transform="translate(329.097656 0)"/>
      <use xlink:href="#DejaVuSans-6e" transform="translate(390.621094 0)"/>
      <use xlink:href="#DejaVuSans-74" transform="translate(454 0)"/>
      <use xlink:href="#DejaVuSans-69" transform="translate(493.208984 0)"/>
      <use xlink:href="#DejaVuSans-61" transform="translate(520.992188 0)"/>
      <use xlink:href="#DejaVuSans-6c" transform="translate(582.271484 0)"/>
      <use xlink:href="#DejaVuSans-20" transform="translate(610.054688 0)"/>
      <use xlink:href="#DejaVuSans-43" transform="translate(641.841797 0)"/>
      <use xlink:href="#DejaVuSans-61" transform="translate(711.666016 0)"/>
      <use xlink:href="#DejaVuSans-6e" transform="translate(772.945312 0)"/>
      <use xlink:href="#DejaVuSans-20" transform="translate(836.324219 0)"/>
      <use xlink:href="#DejaVuSans-44" transform="translate(868.111328 0)"/>
      <use xlink:href="#DejaVuSans-72" transform="translate(945.113281 0)"/>
      <use xlink:href="#DejaVuSans-69" transform="translate(986.226562 0)"/>
      <use xlink:href="#DejaVuSans-76" transform="translate(1014.009766 0)"/>
      <use xlink:href="#DejaVuSans-65" transform="translate(1073.189453 0)"/>
     </g>
    </g>
    <g id="patch_30">
     <path d="M 861.709 99.452688 
L 881.709 99.452688 
L 881.709 92.452688 
L 861.709 92.452688 
z
" style="fill: #7a68a6; opacity: 0.7"/>
    </g>
    <g id="text_15">
     <!-- 4 Credentials Employment Status -->
     <g transform="translate(889.709 99.452688) scale(0.1 -0.1)">
      <defs>
       <path id="DejaVuSans-70" d="M 1159 525 
L 1159 -1331 
L 581 -1331 
L 581 3500 
L 1159 3500 
L 1159 2969 
Q 1341 3281 1617 3432 
Q 1894 3584 2278 3584 
Q 2916 3584 3314 3078 
Q 3713 2572 3713 1747 
Q 3713 922 3314 415 
Q 2916 -91 2278 -91 
Q 1894 -91 1617 61 
Q 1341 213 1159 525 
z
M 3116 1747 
Q 3116 2381 2855 2742 
Q 2594 3103 2138 3103 
Q 1681 3103 1420 2742 
Q 1159 2381 1159 1747 
Q 1159 1113 1420 752 
Q 1681 391 2138 391 
Q 2594 391 2855 752 
Q 3116 1113 3116 1747 
z
" transform="scale(0.015625)"/>
       <path id="DejaVuSans-79" d="M 2059 -325 
Q 1816 -950 1584 -1140 
Q 1353 -1331 966 -1331 
L 506 -1331 
L 506 -850 
L 844 -850 
Q 1081 -850 1212 -737 
Q 1344 -625 1503 -206 
L 1606 56 
L 191 3500 
L 800 3500 
L 1894 763 
L 2988 3500 
L 3597 3500 
L 2059 -325 
z
" transform="scale(0.015625)"/>
      </defs>
      <use xlink:href="#DejaVuSans-34"/>
      <use xlink:href="#DejaVuSans-20" transform="translate(63.623047 0)"/>
      <use xlink:href="#DejaVuSans-43" transform="translate(95.410156 0)"/>
      <use xlink:href="#DejaVuSans-72" transform="translate(165.234375 0)"/>
      <use xlink:href="#DejaVuSans-65" transform="translate(204.097656 0)"/>
      <use xlink:href="#DejaVuSans-64" transform="translate(265.621094 0)"/>
      <use xlink:href="#DejaVuSans-65" transform="translate(329.097656 0)"/>
      <use xlink:href="#DejaVuSans-6e" transform="translate(390.621094 0)"/>
      <use xlink:href="#DejaVuSans-74" transform="translate(454 0)"/>
      <use xlink:href="#DejaVuSans-69" transform="translate(493.208984 0)"/>
      <use xlink:href="#DejaVuSans-61" transform="translate(520.992188 0)"/>
      <use xlink:href="#DejaVuSans-6c" transform="translate(582.271484 0)"/>
      <use xlink:href="#DejaVuSans-73" transform="translate(610.054688 0)"/>
      <use xlink:href="#DejaVuSans-20" transform="translate(662.154297 0)"/>
      <use xlink:href="#DejaVuSans-45" transform="translate(693.941406 0)"/>
      <use xlink:href="#DejaVuSans-6d" transform="translate(757.125 0)"/>
      <use xlink:href="#DejaVuSans-70" transform="translate(854.537109 0)"/>
      <use xlink:href="#DejaVuSans-6c" transform="translate(918.013672 0)"/>
      <use xlink:href="#DejaVuSans-6f" transform="translate(945.796875 0)"/>
      <use xlink:href="#DejaVuSans-79" transform="translate(1006.978516 0)"/>
      <use xlink:href="#DejaVuSans-6d" transform="translate(1066.158203 0)"/>
      <use xlink:href="#DejaVuSans-65" transform="translate(1163.570312 0)"/>
      <use xlink:href="#DejaVuSans-6e" transform="translate(1225.09375 0)"/>
      <use xlink:href="#DejaVuSans-74" transform="translate(1288.472656 0)"/>
      <use xlink:href="#DejaVuSans-20" transform="translate(1327.681641 0)"/>
      <use xlink:href="#DejaVuSans-53" transform="translate(1359.46875 0)"/>
      <use xlink:href="#DejaVuSans-74" transform="translate(1422.945312 0)"/>
      <use xlink:href="#DejaVuSans-61" transform="translate(1462.154297 0)"/>
      <use xlink:href="#DejaVuSans-74" transform="translate(1523.433594 0)"/>
      <use xlink:href="#DejaVuSans-75" transform="translate(1562.642578 0)"/>
      <use xlink:href="#DejaVuSans-73" transform="translate(1626.021484 0)"/>
     </g>
    </g>
    <g id="patch_31">
     <path d="M 861.709 114.130813 
L 881.709 114.130813 
L 881.709 107.130813 
L 861.709 107.130813 
z
" style="fill: #554974; opacity: 0.9"/>
    </g>
    <g id="text_16">
     <!-- 1 Credential Employment Status -->
     <g transform="translate(889.709 114.130813) scale(0.1 -0.1)">
      <use xlink:href="#DejaVuSans-31"/>
      <use xlink:href="#DejaVuSans-20" transform="translate(63.623047 0)"/>
      <use xlink:href="#DejaVuSans-43" transform="translate(95.410156 0)"/>
      <use xlink:href="#DejaVuSans-72" transform="translate(165.234375 0)"/>
      <use xlink:href="#DejaVuSans-65" transform="translate(204.097656 0)"/>
      <use xlink:href="#DejaVuSans-64" transform="translate(265.621094 0)"/>
      <use xlink:href="#DejaVuSans-65" transform="translate(329.097656 0)"/>
      <use xlink:href="#DejaVuSans-6e" transform="translate(390.621094 0)"/>
      <use xlink:href="#DejaVuSans-74" transform="translate(454 0)"/>
      <use xlink:href="#DejaVuSans-69" transform="translate(493.208984 0)"/>
      <use xlink:href="#DejaVuSans-61" transform="translate(520.992188 0)"/>
      <use xlink:href="#DejaVuSans-6c" transform="translate(582.271484 0)"/>
      <use xlink:href="#DejaVuSans-20" transform="translate(610.054688 0)"/>
      <use xlink:href="#DejaVuSans-45" transform="translate(641.841797 0)"/>
      <use xlink:href="#DejaVuSans-6d" transform="translate(705.025391 0)"/>
      <use xlink:href="#DejaVuSans-70" transform="translate(802.4375 0)"/>
      <use xlink:href="#DejaVuSans-6c" transform="translate(865.914062 0)"/>
      <use xlink:href="#DejaVuSans-6f" transform="translate(893.697266 0)"/>
      <use xlink:href="#DejaVuSans-79" transform="translate(954.878906 0)"/>
      <use xlink:href="#DejaVuSans-6d" transform="translate(1014.058594 0)"/>
      <use xlink:href="#DejaVuSans-65" transform="translate(1111.470703 0)"/>
      <use xlink:href="#DejaVuSans-6e" transform="translate(1172.994141 0)"/>
      <use xlink:href="#DejaVuSans-74" transform="translate(1236.373047 0)"/>
      <use xlink:href="#DejaVuSans-20" transform="translate(1275.582031 0)"/>
      <use xlink:href="#DejaVuSans-53" transform="translate(1307.369141 0)"/>
      <use xlink:href="#DejaVuSans-74" transform="translate(1370.845703 0)"/>
      <use xlink:href="#DejaVuSans-61" transform="translate(1410.054688 0)"/>
      <use xlink:href="#DejaVuSans-74" transform="translate(1471.333984 0)"/>
      <use xlink:href="#DejaVuSans-75" transform="translate(1510.542969 0)"/>
      <use xlink:href="#DejaVuSans-73" transform="translate(1573.921875 0)"/>
     </g>
    </g>
   </g>
  </g>
  <g id="axes_2">
   <g id="patch_32">
    <path d="M 51.76375 835.80175 
L 814.56875 835.80175 
L 814.56875 450.74175 
L 51.76375 450.74175 
z
" style="fill: #eeeeee"/>
   </g>
   <g id="patch_33">
    <path d="M 86.436705 835.80175 
L 138.187383 835.80175 
L 138.187383 531.968194 
L 86.436705 531.968194 
z
" clip-path="url(#pf1eb3ff0df)" style="fill: #348abd; opacity: 0.7"/>
   </g>
   <g id="patch_34">
    <path d="M 345.190097 835.80175 
L 396.940775 835.80175 
L 396.940775 469.07794 
L 345.190097 469.07794 
z
" clip-path="url(#pf1eb3ff0df)" style="fill: #348abd; opacity: 0.7"/>
   </g>
   <g id="patch_35">
    <path d="M 603.943489 835.80175 
L 655.694167 835.80175 
L 655.694167 543.24425 
L 603.943489 543.24425 
z
" clip-path="url(#pf1eb3ff0df)" style="fill: #348abd; opacity: 0.7"/>
   </g>
   <g id="patch_36">
    <path d="M 86.436705 835.80175 
L 138.187383 835.80175 
L 138.187383 705.100588 
L 86.436705 705.100588 
z
" clip-path="url(#pf1eb3ff0df)" style="fill: #246184; opacity: 0.9"/>
   </g>
   <g id="patch_37">
    <path d="M 345.190097 835.80175 
L 396.940775 835.80175 
L 396.940775 715.392649 
L 345.190097 715.392649 
z
" clip-path="url(#pf1eb3ff0df)" style="fill: #246184; opacity: 0.9"/>
   </g>
   <g id="patch_38">
    <path d="M 603.943489 835.80175 
L 655.694167 835.80175 
L 655.694167 731.597217 
L 603.943489 731.597217 
z
" clip-path="url(#pf1eb3ff0df)" style="fill: #246184; opacity: 0.9"/>
   </g>
   <g id="patch_39">
    <path d="M 148.537519 835.80175 
L 200.288197 835.80175 
L 200.288197 575.566302 
L 148.537519 575.566302 
z
" clip-path="url(#pf1eb3ff0df)" style="fill: #a60628; opacity: 0.7"/>
   </g>
   <g id="patch_40">
    <path d="M 407.290911 835.80175 
L 459.041589 835.80175 
L 459.041589 520.174389 
L 407.290911 520.174389 
z
" clip-path="url(#pf1eb3ff0df)" style="fill: #a60628; opacity: 0.7"/>
   </g>
   <g id="patch_41">
    <path d="M 666.044303 835.80175 
L 717.794981 835.80175 
L 717.794981 582.032111 
L 666.044303 582.032111 
z
" clip-path="url(#pf1eb3ff0df)" style="fill: #a60628; opacity: 0.7"/>
   </g>
   <g id="patch_42">
    <path d="M 148.537519 835.80175 
L 200.288197 835.80175 
L 200.288197 729.984014 
L 148.537519 729.984014 
z
" clip-path="url(#pf1eb3ff0df)" style="fill: #74041c; opacity: 0.9"/>
   </g>
   <g id="patch_43">
    <path d="M 407.290911 835.80175 
L 459.041589 835.80175 
L 459.041589 716.323237 
L 407.290911 716.323237 
z
" clip-path="url(#pf1eb3ff0df)" style="fill: #74041c; opacity: 0.9"/>
   </g>
   <g id="patch_44">
    <path d="M 666.044303 835.80175 
L 717.794981 835.80175 
L 717.794981 728.179022 
L 666.044303 728.179022 
z
" clip-path="url(#pf1eb3ff0df)" style="fill: #74041c; opacity: 0.9"/>
   </g>
   <g id="patch_45">
    <path d="M 210.638333 835.80175 
L 262.389011 835.80175 
L 262.389011 558.148285 
L 210.638333 558.148285 
z
" clip-path="url(#pf1eb3ff0df)" style="fill: #7a68a6; opacity: 0.7"/>
   </g>
   <g id="patch_46">
    <path d="M 469.391725 835.80175 
L 521.142403 835.80175 
L 521.142403 558.487091 
L 469.391725 558.487091 
z
" clip-path="url(#pf1eb3ff0df)" style="fill: #7a68a6; opacity: 0.7"/>
   </g>
   <g id="patch_47">
    <path d="M 728.145117 835.80175 
L 779.895795 835.80175 
L 779.895795 590.662835 
L 728.145117 590.662835 
z
" clip-path="url(#pf1eb3ff0df)" style="fill: #7a68a6; opacity: 0.7"/>
   </g>
   <g id="patch_48">
    <path d="M 210.638333 835.80175 
L 262.389011 835.80175 
L 262.389011 746.115393 
L 210.638333 746.115393 
z
" clip-path="url(#pf1eb3ff0df)" style="fill: #554974; opacity: 0.9"/>
   </g>
   <g id="patch_49">
    <path d="M 469.391725 835.80175 
L 521.142403 835.80175 
L 521.142403 755.900015 
L 469.391725 755.900015 
z
" clip-path="url(#pf1eb3ff0df)" style="fill: #554974; opacity: 0.9"/>
   </g>
   <g id="patch_50">
    <path d="M 728.145117 835.80175 
L 779.895795 835.80175 
L 779.895795 763.19385 
L 728.145117 763.19385 
z
" clip-path="url(#pf1eb3ff0df)" style="fill: #554974; opacity: 0.9"/>
   </g>
   <g id="matplotlib.axis_3">
    <g id="xtick_4">
     <g id="line2d_17">
      <path d="M 174.412858 835.80175 
L 174.412858 450.74175 
" clip-path="url(#pf1eb3ff0df)" style="fill: none; stroke-dasharray: 1.85,0.8; stroke-dashoffset: 0; stroke: #b2b2b2; stroke-opacity: 0.3; stroke-width: 0.5"/>
     </g>
     <g id="line2d_18">
      <g>
       <use xlink:href="#m71dcf0552b" x="174.412858" y="835.80175" style="stroke: #000000; stroke-width: 0.8"/>
      </g>
     </g>
     <g id="text_17">
      <!-- Macos Ci -->
      <g transform="translate(152.15192 846.900187) scale(0.1 -0.1)">
       <use xlink:href="#DejaVuSans-4d"/>
       <use xlink:href="#DejaVuSans-61" transform="translate(86.279297 0)"/>
       <use xlink:href="#DejaVuSans-63" transform="translate(147.558594 0)"/>
       <use xlink:href="#DejaVuSans-6f" transform="translate(202.539062 0)"/>
       <use xlink:href="#DejaVuSans-73" transform="translate(263.720703 0)"/>
       <use xlink:href="#DejaVuSans-20" transform="translate(315.820312 0)"/>
       <use xlink:href="#DejaVuSans-43" transform="translate(347.607422 0)"/>
       <use xlink:href="#DejaVuSans-69" transform="translate(417.431641 0)"/>
      </g>
     </g>
    </g>
    <g id="xtick_5">
     <g id="line2d_19">
      <path d="M 433.16625 835.80175 
L 433.16625 450.74175 
" clip-path="url(#pf1eb3ff0df)" style="fill: none; stroke-dasharray: 1.85,0.8; stroke-dashoffset: 0; stroke: #b2b2b2; stroke-opacity: 0.3; stroke-width: 0.5"/>
     </g>
     <g id="line2d_20">
      <g>
       <use xlink:href="#m71dcf0552b" x="433.16625" y="835.80175" style="stroke: #000000; stroke-width: 0.8"/>
      </g>
     </g>
     <g id="text_18">
      <!-- Ubuntu Ci -->
      <g transform="translate(408.396719 846.900187) scale(0.1 -0.1)">
       <use xlink:href="#DejaVuSans-55"/>
       <use xlink:href="#DejaVuSans-62" transform="translate(73.193359 0)"/>
       <use xlink:href="#DejaVuSans-75" transform="translate(136.669922 0)"/>
       <use xlink:href="#DejaVuSans-6e" transform="translate(200.048828 0)"/>
       <use xlink:href="#DejaVuSans-74" transform="translate(263.427734 0)"/>
       <use xlink:href="#DejaVuSans-75" transform="translate(302.636719 0)"/>
       <use xlink:href="#DejaVuSans-20" transform="translate(366.015625 0)"/>
       <use xlink:href="#DejaVuSans-43" transform="translate(397.802734 0)"/>
       <use xlink:href="#DejaVuSans-69" transform="translate(467.626953 0)"/>
      </g>
     </g>
    </g>
    <g id="xtick_6">
     <g id="line2d_21">
      <path d="M 691.919642 835.80175 
L 691.919642 450.74175 
" clip-path="url(#pf1eb3ff0df)" style="fill: none; stroke-dasharray: 1.85,0.8; stroke-dashoffset: 0; stroke: #b2b2b2; stroke-opacity: 0.3; stroke-width: 0.5"/>
     </g>
     <g id="line2d_22">
      <g>
       <use xlink:href="#m71dcf0552b" x="691.919642" y="835.80175" style="stroke: #000000; stroke-width: 0.8"/>
      </g>
     </g>
     <g id="text_19">
      <!-- Macos Local -->
      <g transform="translate(661.579017 846.900187) scale(0.1 -0.1)">
       <use xlink:href="#DejaVuSans-4d"/>
       <use xlink:href="#DejaVuSans-61" transform="translate(86.279297 0)"/>
       <use xlink:href="#DejaVuSans-63" transform="translate(147.558594 0)"/>
       <use xlink:href="#DejaVuSans-6f" transform="translate(202.539062 0)"/>
       <use xlink:href="#DejaVuSans-73" transform="translate(263.720703 0)"/>
       <use xlink:href="#DejaVuSans-20" transform="translate(315.820312 0)"/>
       <use xlink:href="#DejaVuSans-4c" transform="translate(347.607422 0)"/>
       <use xlink:href="#DejaVuSans-6f" transform="translate(401.570312 0)"/>
       <use xlink:href="#DejaVuSans-63" transform="translate(462.751953 0)"/>
       <use xlink:href="#DejaVuSans-61" transform="translate(517.732422 0)"/>
       <use xlink:href="#DejaVuSans-6c" transform="translate(579.011719 0)"/>
      </g>
     </g>
    </g>
   </g>
   <g id="matplotlib.axis_4">
    <g id="ytick_6">
     <g id="line2d_23">
      <path d="M 51.76375 835.80175 
L 814.56875 835.80175 
" clip-path="url(#pf1eb3ff0df)" style="fill: none; stroke-dasharray: 1.85,0.8; stroke-dashoffset: 0; stroke: #b2b2b2; stroke-opacity: 0.3; stroke-width: 0.5"/>
     </g>
     <g id="line2d_24">
      <g>
       <use xlink:href="#m4e59f43c1e" x="51.76375" y="835.80175" style="stroke: #000000; stroke-width: 0.8"/>
      </g>
     </g>
     <g id="text_20">
      <!-- 0 -->
      <g transform="translate(41.90125 839.600969) scale(0.1 -0.1)">
       <use xlink:href="#DejaVuSans-30"/>
      </g>
     </g>
    </g>
    <g id="ytick_7">
     <g id="line2d_25">
      <path d="M 51.76375 760.828847 
L 814.56875 760.828847 
" clip-path="url(#pf1eb3ff0df)" style="fill: none; stroke-dasharray: 1.85,0.8; stroke-dashoffset: 0; stroke: #b2b2b2; stroke-opacity: 0.3; stroke-width: 0.5"/>
     </g>
     <g id="line2d_26">
      <g>
       <use xlink:href="#m4e59f43c1e" x="51.76375" y="760.828847" style="stroke: #000000; stroke-width: 0.8"/>
      </g>
     </g>
     <g id="text_21">
      <!-- 2 -->
      <g transform="translate(41.90125 764.628066) scale(0.1 -0.1)">
       <use xlink:href="#DejaVuSans-32"/>
      </g>
     </g>
    </g>
    <g id="ytick_8">
     <g id="line2d_27">
      <path d="M 51.76375 685.855944 
L 814.56875 685.855944 
" clip-path="url(#pf1eb3ff0df)" style="fill: none; stroke-dasharray: 1.85,0.8; stroke-dashoffset: 0; stroke: #b2b2b2; stroke-opacity: 0.3; stroke-width: 0.5"/>
     </g>
     <g id="line2d_28">
      <g>
       <use xlink:href="#m4e59f43c1e" x="51.76375" y="685.855944" style="stroke: #000000; stroke-width: 0.8"/>
      </g>
     </g>
     <g id="text_22">
      <!-- 4 -->
      <g transform="translate(41.90125 689.655163) scale(0.1 -0.1)">
       <use xlink:href="#DejaVuSans-34"/>
      </g>
     </g>
    </g>
    <g id="ytick_9">
     <g id="line2d_29">
      <path d="M 51.76375 610.883041 
L 814.56875 610.883041 
" clip-path="url(#pf1eb3ff0df)" style="fill: none; stroke-dasharray: 1.85,0.8; stroke-dashoffset: 0; stroke: #b2b2b2; stroke-opacity: 0.3; stroke-width: 0.5"/>
     </g>
     <g id="line2d_30">
      <g>
       <use xlink:href="#m4e59f43c1e" x="51.76375" y="610.883041" style="stroke: #000000; stroke-width: 0.8"/>
      </g>
     </g>
     <g id="text_23">
      <!-- 6 -->
      <g transform="translate(41.90125 614.68226) scale(0.1 -0.1)">
       <defs>
        <path id="DejaVuSans-36" d="M 2113 2584 
Q 1688 2584 1439 2293 
Q 1191 2003 1191 1497 
Q 1191 994 1439 701 
Q 1688 409 2113 409 
Q 2538 409 2786 701 
Q 3034 994 3034 1497 
Q 3034 2003 2786 2293 
Q 2538 2584 2113 2584 
z
M 3366 4563 
L 3366 3988 
Q 3128 4100 2886 4159 
Q 2644 4219 2406 4219 
Q 1781 4219 1451 3797 
Q 1122 3375 1075 2522 
Q 1259 2794 1537 2939 
Q 1816 3084 2150 3084 
Q 2853 3084 3261 2657 
Q 3669 2231 3669 1497 
Q 3669 778 3244 343 
Q 2819 -91 2113 -91 
Q 1303 -91 875 529 
Q 447 1150 447 2328 
Q 447 3434 972 4092 
Q 1497 4750 2381 4750 
Q 2619 4750 2861 4703 
Q 3103 4656 3366 4563 
z
" transform="scale(0.015625)"/>
       </defs>
       <use xlink:href="#DejaVuSans-36"/>
      </g>
     </g>
    </g>
    <g id="ytick_10">
     <g id="line2d_31">
      <path d="M 51.76375 535.910138 
L 814.56875 535.910138 
" clip-path="url(#pf1eb3ff0df)" style="fill: none; stroke-dasharray: 1.85,0.8; stroke-dashoffset: 0; stroke: #b2b2b2; stroke-opacity: 0.3; stroke-width: 0.5"/>
     </g>
     <g id="line2d_32">
      <g>
       <use xlink:href="#m4e59f43c1e" x="51.76375" y="535.910138" style="stroke: #000000; stroke-width: 0.8"/>
      </g>
     </g>
     <g id="text_24">
      <!-- 8 -->
      <g transform="translate(41.90125 539.709357) scale(0.1 -0.1)">
       <defs>
        <path id="DejaVuSans-38" d="M 2034 2216 
Q 1584 2216 1326 1975 
Q 1069 1734 1069 1313 
Q 1069 891 1326 650 
Q 1584 409 2034 409 
Q 2484 409 2743 651 
Q 3003 894 3003 1313 
Q 3003 1734 2745 1975 
Q 2488 2216 2034 2216 
z
M 1403 2484 
Q 997 2584 770 2862 
Q 544 3141 544 3541 
Q 544 4100 942 4425 
Q 1341 4750 2034 4750 
Q 2731 4750 3128 4425 
Q 3525 4100 3525 3541 
Q 3525 3141 3298 2862 
Q 3072 2584 2669 2484 
Q 3125 2378 3379 2068 
Q 3634 1759 3634 1313 
Q 3634 634 3220 271 
Q 2806 -91 2034 -91 
Q 1263 -91 848 271 
Q 434 634 434 1313 
Q 434 1759 690 2068 
Q 947 2378 1403 2484 
z
M 1172 3481 
Q 1172 3119 1398 2916 
Q 1625 2713 2034 2713 
Q 2441 2713 2670 2916 
Q 2900 3119 2900 3481 
Q 2900 3844 2670 4047 
Q 2441 4250 2034 4250 
Q 1625 4250 1398 4047 
Q 1172 3844 1172 3481 
z
" transform="scale(0.015625)"/>
       </defs>
       <use xlink:href="#DejaVuSans-38"/>
      </g>
     </g>
    </g>
    <g id="ytick_11">
     <g id="line2d_33">
      <path d="M 51.76375 460.937235 
L 814.56875 460.937235 
" clip-path="url(#pf1eb3ff0df)" style="fill: none; stroke-dasharray: 1.85,0.8; stroke-dashoffset: 0; stroke: #b2b2b2; stroke-opacity: 0.3; stroke-width: 0.5"/>
     </g>
     <g id="line2d_34">
      <g>
       <use xlink:href="#m4e59f43c1e" x="51.76375" y="460.937235" style="stroke: #000000; stroke-width: 0.8"/>
      </g>
     </g>
     <g id="text_25">
      <!-- 10 -->
      <g transform="translate(35.53875 464.736454) scale(0.1 -0.1)">
       <use xlink:href="#DejaVuSans-31"/>
       <use xlink:href="#DejaVuSans-30" transform="translate(63.623047 0)"/>
      </g>
     </g>
    </g>
    <g id="text_26">
     <!-- Time (seconds) -->
     <g transform="translate(29.043125 689.065812) rotate(-90) scale(0.12 -0.12)">
      <use xlink:href="#DejaVuSans-54"/>
      <use xlink:href="#DejaVuSans-69" transform="translate(57.958984 0)"/>
      <use xlink:href="#DejaVuSans-6d" transform="translate(85.742188 0)"/>
      <use xlink:href="#DejaVuSans-65" transform="translate(183.154297 0)"/>
      <use xlink:href="#DejaVuSans-20" transform="translate(244.677734 0)"/>
      <use xlink:href="#DejaVuSans-28" transform="translate(276.464844 0)"/>
      <use xlink:href="#DejaVuSans-73" transform="translate(315.478516 0)"/>
      <use xlink:href="#DejaVuSans-65" transform="translate(367.578125 0)"/>
      <use xlink:href="#DejaVuSans-63" transform="translate(429.101562 0)"/>
      <use xlink:href="#DejaVuSans-6f" transform="translate(484.082031 0)"/>
      <use xlink:href="#DejaVuSans-6e" transform="translate(545.263672 0)"/>
      <use xlink:href="#DejaVuSans-64" transform="translate(608.642578 0)"/>
      <use xlink:href="#DejaVuSans-73" transform="translate(672.119141 0)"/>
      <use xlink:href="#DejaVuSans-29" transform="translate(724.21875 0)"/>
     </g>
    </g>
   </g>
   <g id="patch_51">
    <path d="M 51.76375 835.80175 
L 51.76375 450.74175 
" style="fill: none; stroke: #bcbcbc; stroke-width: 0.8; stroke-linejoin: miter; stroke-linecap: square"/>
   </g>
   <g id="patch_52">
    <path d="M 814.56875 835.80175 
L 814.56875 450.74175 
" style="fill: none; stroke: #bcbcbc; stroke-width: 0.8; stroke-linejoin: miter; stroke-linecap: square"/>
   </g>
   <g id="patch_53">
    <path d="M 51.76375 835.80175 
L 814.56875 835.80175 
" style="fill: none; stroke: #bcbcbc; stroke-width: 0.8; stroke-linejoin: miter; stroke-linecap: square"/>
   </g>
   <g id="patch_54">
    <path d="M 51.76375 450.74175 
L 814.56875 450.74175 
" style="fill: none; stroke: #bcbcbc; stroke-width: 0.8; stroke-linejoin: miter; stroke-linecap: square"/>
   </g>
   <g id="text_27">
    <!-- Verification Times -->
    <g transform="translate(369.055875 444.74175) scale(0.144 -0.144)">
     <defs>
      <path id="DejaVuSans-56" d="M 1831 0 
L 50 4666 
L 709 4666 
L 2188 738 
L 3669 4666 
L 4325 4666 
L 2547 0 
L 1831 0 
z
" transform="scale(0.015625)"/>
     </defs>
     <use xlink:href="#DejaVuSans-56"/>
     <use xlink:href="#DejaVuSans-65" transform="translate(60.658203 0)"/>
     <use xlink:href="#DejaVuSans-72" transform="translate(122.181641 0)"/>
     <use xlink:href="#DejaVuSans-69" transform="translate(163.294922 0)"/>
     <use xlink:href="#DejaVuSans-66" transform="translate(191.078125 0)"/>
     <use xlink:href="#DejaVuSans-69" transform="translate(226.283203 0)"/>
     <use xlink:href="#DejaVuSans-63" transform="translate(254.066406 0)"/>
     <use xlink:href="#DejaVuSans-61" transform="translate(309.046875 0)"/>
     <use xlink:href="#DejaVuSans-74" transform="translate(370.326172 0)"/>
     <use xlink:href="#DejaVuSans-69" transform="translate(409.535156 0)"/>
     <use xlink:href="#DejaVuSans-6f" transform="translate(437.318359 0)"/>
     <use xlink:href="#DejaVuSans-6e" transform="translate(498.5 0)"/>
     <use xlink:href="#DejaVuSans-20" transform="translate(561.878906 0)"/>
     <use xlink:href="#DejaVuSans-54" transform="translate(593.666016 0)"/>
     <use xlink:href="#DejaVuSans-69" transform="translate(651.625 0)"/>
     <use xlink:href="#DejaVuSans-6d" transform="translate(679.408203 0)"/>
     <use xlink:href="#DejaVuSans-65" transform="translate(776.820312 0)"/>
     <use xlink:href="#DejaVuSans-73" transform="translate(838.34375 0)"/>
    </g>
   </g>
   <g id="legend_2">
    <g id="patch_55">
     <path d="M 859.709 546.8105 
L 1059.519938 546.8105 
Q 1061.519938 546.8105 1061.519938 544.8105 
L 1061.519938 457.74175 
Q 1061.519938 455.74175 1059.519938 455.74175 
L 859.709 455.74175 
Q 857.709 455.74175 857.709 457.74175 
L 857.709 544.8105 
Q 857.709 546.8105 859.709 546.8105 
z
" style="fill: #eeeeee; opacity: 0.8; stroke: #cccccc; stroke-width: 0.5; stroke-linejoin: miter"/>
    </g>
    <g id="patch_56">
     <path d="M 861.709 467.340187 
L 881.709 467.340187 
L 881.709 460.340187 
L 861.709 460.340187 
z
" style="fill: #348abd; opacity: 0.7"/>
    </g>
    <g id="text_28">
     <!-- 4 Credentials SELECT ALL -->
     <g transform="translate(889.709 467.340187) scale(0.1 -0.1)">
      <use xlink:href="#DejaVuSans-34"/>
      <use xlink:href="#DejaVuSans-20" transform="translate(63.623047 0)"/>
      <use xlink:href="#DejaVuSans-43" transform="translate(95.410156 0)"/>
      <use xlink:href="#DejaVuSans-72" transform="translate(165.234375 0)"/>
      <use xlink:href="#DejaVuSans-65" transform="translate(204.097656 0)"/>
      <use xlink:href="#DejaVuSans-64" transform="translate(265.621094 0)"/>
      <use xlink:href="#DejaVuSans-65" transform="translate(329.097656 0)"/>
      <use xlink:href="#DejaVuSans-6e" transform="translate(390.621094 0)"/>
      <use xlink:href="#DejaVuSans-74" transform="translate(454 0)"/>
      <use xlink:href="#DejaVuSans-69" transform="translate(493.208984 0)"/>
      <use xlink:href="#DejaVuSans-61" transform="translate(520.992188 0)"/>
      <use xlink:href="#DejaVuSans-6c" transform="translate(582.271484 0)"/>
      <use xlink:href="#DejaVuSans-73" transform="translate(610.054688 0)"/>
      <use xlink:href="#DejaVuSans-20" transform="translate(662.154297 0)"/>
      <use xlink:href="#DejaVuSans-53" transform="translate(693.941406 0)"/>
      <use xlink:href="#DejaVuSans-45" transform="translate(757.417969 0)"/>
      <use xlink:href="#DejaVuSans-4c" transform="translate(820.601562 0)"/>
      <use xlink:href="#DejaVuSans-45" transform="translate(876.314453 0)"/>
      <use xlink:href="#DejaVuSans-43" transform="translate(939.498047 0)"/>
      <use xlink:href="#DejaVuSans-54" transform="translate(1009.322266 0)"/>
      <use xlink:href="#DejaVuSans-20" transform="translate(1070.40625 0)"/>
      <use xlink:href="#DejaVuSans-41" transform="translate(1102.193359 0)"/>
      <use xlink:href="#DejaVuSans-4c" transform="translate(1170.601562 0)"/>
      <use xlink:href="#DejaVuSans-4c" transform="translate(1226.314453 0)"/>
     </g>
    </g>
    <g id="patch_57">
     <path d="M 861.709 482.018312 
L 881.709 482.018312 
L 881.709 475.018312 
L 861.709 475.018312 
z
" style="fill: #246184; opacity: 0.9"/>
    </g>
    <g id="text_29">
     <!-- 1 Credential SELECT ALL -->
     <g transform="translate(889.709 482.018312) scale(0.1 -0.1)">
      <use xlink:href="#DejaVuSans-31"/>
      <use xlink:href="#DejaVuSans-20" transform="translate(63.623047 0)"/>
      <use xlink:href="#DejaVuSans-43" transform="translate(95.410156 0)"/>
      <use xlink:href="#DejaVuSans-72" transform="translate(165.234375 0)"/>
      <use xlink:href="#DejaVuSans-65" transform="translate(204.097656 0)"/>
      <use xlink:href="#DejaVuSans-64" transform="translate(265.621094 0)"/>
      <use xlink:href="#DejaVuSans-65" transform="translate(329.097656 0)"/>
      <use xlink:href="#DejaVuSans-6e" transform="translate(390.621094 0)"/>
      <use xlink:href="#DejaVuSans-74" transform="translate(454 0)"/>
      <use xlink:href="#DejaVuSans-69" transform="translate(493.208984 0)"/>
      <use xlink:href="#DejaVuSans-61" transform="translate(520.992188 0)"/>
      <use xlink:href="#DejaVuSans-6c" transform="translate(582.271484 0)"/>
      <use xlink:href="#DejaVuSans-20" transform="translate(610.054688 0)"/>
      <use xlink:href="#DejaVuSans-53" transform="translate(641.841797 0)"/>
      <use xlink:href="#DejaVuSans-45" transform="translate(705.318359 0)"/>
      <use xlink:href="#DejaVuSans-4c" transform="translate(768.501953 0)"/>
      <use xlink:href="#DejaVuSans-45" transform="translate(824.214844 0)"/>
      <use xlink:href="#DejaVuSans-43" transform="translate(887.398438 0)"/>
      <use xlink:href="#DejaVuSans-54" transform="translate(957.222656 0)"/>
      <use xlink:href="#DejaVuSans-20" transform="translate(1018.306641 0)"/>
      <use xlink:href="#DejaVuSans-41" transform="translate(1050.09375 0)"/>
      <use xlink:href="#DejaVuSans-4c" transform="translate(1118.501953 0)"/>
      <use xlink:href="#DejaVuSans-4c" transform="translate(1174.214844 0)"/>
     </g>
    </g>
    <g id="patch_58">
     <path d="M 861.709 496.696437 
L 881.709 496.696437 
L 881.709 489.696437 
L 861.709 489.696437 
z
" style="fill: #a60628; opacity: 0.7"/>
    </g>
    <g id="text_30">
     <!-- 4 Credentials Can Drive -->
     <g transform="translate(889.709 496.696437) scale(0.1 -0.1)">
      <use xlink:href="#DejaVuSans-34"/>
      <use xlink:href="#DejaVuSans-20" transform="translate(63.623047 0)"/>
      <use xlink:href="#DejaVuSans-43" transform="translate(95.410156 0)"/>
      <use xlink:href="#DejaVuSans-72" transform="translate(165.234375 0)"/>
      <use xlink:href="#DejaVuSans-65" transform="translate(204.097656 0)"/>
      <use xlink:href="#DejaVuSans-64" transform="translate(265.621094 0)"/>
      <use xlink:href="#DejaVuSans-65" transform="translate(329.097656 0)"/>
      <use xlink:href="#DejaVuSans-6e" transform="translate(390.621094 0)"/>
      <use xlink:href="#DejaVuSans-74" transform="translate(454 0)"/>
      <use xlink:href="#DejaVuSans-69" transform="translate(493.208984 0)"/>
      <use xlink:href="#DejaVuSans-61" transform="translate(520.992188 0)"/>
      <use xlink:href="#DejaVuSans-6c" transform="translate(582.271484 0)"/>
      <use xlink:href="#DejaVuSans-73" transform="translate(610.054688 0)"/>
      <use xlink:href="#DejaVuSans-20" transform="translate(662.154297 0)"/>
      <use xlink:href="#DejaVuSans-43" transform="translate(693.941406 0)"/>
      <use xlink:href="#DejaVuSans-61" transform="translate(763.765625 0)"/>
      <use xlink:href="#DejaVuSans-6e" transform="translate(825.044922 0)"/>
      <use xlink:href="#DejaVuSans-20" transform="translate(888.423828 0)"/>
      <use xlink:href="#DejaVuSans-44" transform="translate(920.210938 0)"/>
      <use xlink:href="#DejaVuSans-72" transform="translate(997.212891 0)"/>
      <use xlink:href="#DejaVuSans-69" transform="translate(1038.326172 0)"/>
      <use xlink:href="#DejaVuSans-76" transform="translate(1066.109375 0)"/>
      <use xlink:href="#DejaVuSans-65" transform="translate(1125.289062 0)"/>
     </g>
    </g>
    <g id="patch_59">
     <path d="M 861.709 511.374562 
L 881.709 511.374562 
L 881.709 504.374562 
L 861.709 504.374562 
z
" style="fill: #74041c; opacity: 0.9"/>
    </g>
    <g id="text_31">
     <!-- 1 Credential Can Drive -->
     <g transform="translate(889.709 511.374562) scale(0.1 -0.1)">
      <use xlink:href="#DejaVuSans-31"/>
      <use xlink:href="#DejaVuSans-20" transform="translate(63.623047 0)"/>
      <use xlink:href="#DejaVuSans-43" transform="translate(95.410156 0)"/>
      <use xlink:href="#DejaVuSans-72" transform="translate(165.234375 0)"/>
      <use xlink:href="#DejaVuSans-65" transform="translate(204.097656 0)"/>
      <use xlink:href="#DejaVuSans-64" transform="translate(265.621094 0)"/>
      <use xlink:href="#DejaVuSans-65" transform="translate(329.097656 0)"/>
      <use xlink:href="#DejaVuSans-6e" transform="translate(390.621094 0)"/>
      <use xlink:href="#DejaVuSans-74" transform="translate(454 0)"/>
      <use xlink:href="#DejaVuSans-69" transform="translate(493.208984 0)"/>
      <use xlink:href="#DejaVuSans-61" transform="translate(520.992188 0)"/>
      <use xlink:href="#DejaVuSans-6c" transform="translate(582.271484 0)"/>
      <use xlink:href="#DejaVuSans-20" transform="translate(610.054688 0)"/>
      <use xlink:href="#DejaVuSans-43" transform="translate(641.841797 0)"/>
      <use xlink:href="#DejaVuSans-61" transform="translate(711.666016 0)"/>
      <use xlink:href="#DejaVuSans-6e" transform="translate(772.945312 0)"/>
      <use xlink:href="#DejaVuSans-20" transform="translate(836.324219 0)"/>
      <use xlink:href="#DejaVuSans-44" transform="translate(868.111328 0)"/>
      <use xlink:href="#DejaVuSans-72" transform="translate(945.113281 0)"/>
      <use xlink:href="#DejaVuSans-69" transform="translate(986.226562 0)"/>
      <use xlink:href="#DejaVuSans-76" transform="translate(1014.009766 0)"/>
      <use xlink:href="#DejaVuSans-65" transform="translate(1073.189453 0)"/>
     </g>
    </g>
    <g id="patch_60">
     <path d="M 861.709 526.052687 
L 881.709 526.052687 
L 881.709 519.052687 
L 861.709 519.052687 
z
" style="fill: #7a68a6; opacity: 0.7"/>
    </g>
    <g id="text_32">
     <!-- 4 Credentials Employment Status -->
     <g transform="translate(889.709 526.052687) scale(0.1 -0.1)">
      <use xlink:href="#DejaVuSans-34"/>
      <use xlink:href="#DejaVuSans-20" transform="translate(63.623047 0)"/>
      <use xlink:href="#DejaVuSans-43" transform="translate(95.410156 0)"/>
      <use xlink:href="#DejaVuSans-72" transform="translate(165.234375 0)"/>
      <use xlink:href="#DejaVuSans-65" transform="translate(204.097656 0)"/>
      <use xlink:href="#DejaVuSans-64" transform="translate(265.621094 0)"/>
      <use xlink:href="#DejaVuSans-65" transform="translate(329.097656 0)"/>
      <use xlink:href="#DejaVuSans-6e" transform="translate(390.621094 0)"/>
      <use xlink:href="#DejaVuSans-74" transform="translate(454 0)"/>
      <use xlink:href="#DejaVuSans-69" transform="translate(493.208984 0)"/>
      <use xlink:href="#DejaVuSans-61" transform="translate(520.992188 0)"/>
      <use xlink:href="#DejaVuSans-6c" transform="translate(582.271484 0)"/>
      <use xlink:href="#DejaVuSans-73" transform="translate(610.054688 0)"/>
      <use xlink:href="#DejaVuSans-20" transform="translate(662.154297 0)"/>
      <use xlink:href="#DejaVuSans-45" transform="translate(693.941406 0)"/>
      <use xlink:href="#DejaVuSans-6d" transform="translate(757.125 0)"/>
      <use xlink:href="#DejaVuSans-70" transform="translate(854.537109 0)"/>
      <use xlink:href="#DejaVuSans-6c" transform="translate(918.013672 0)"/>
      <use xlink:href="#DejaVuSans-6f" transform="translate(945.796875 0)"/>
      <use xlink:href="#DejaVuSans-79" transform="translate(1006.978516 0)"/>
      <use xlink:href="#DejaVuSans-6d" transform="translate(1066.158203 0)"/>
      <use xlink:href="#DejaVuSans-65" transform="translate(1163.570312 0)"/>
      <use xlink:href="#DejaVuSans-6e" transform="translate(1225.09375 0)"/>
      <use xlink:href="#DejaVuSans-74" transform="translate(1288.472656 0)"/>
      <use xlink:href="#DejaVuSans-20" transform="translate(1327.681641 0)"/>
      <use xlink:href="#DejaVuSans-53" transform="translate(1359.46875 0)"/>
      <use xlink:href="#DejaVuSans-74" transform="translate(1422.945312 0)"/>
      <use xlink:href="#DejaVuSans-61" transform="translate(1462.154297 0)"/>
      <use xlink:href="#DejaVuSans-74" transform="translate(1523.433594 0)"/>
      <use xlink:href="#DejaVuSans-75" transform="translate(1562.642578 0)"/>
      <use xlink:href="#DejaVuSans-73" transform="translate(1626.021484 0)"/>
     </g>
    </g>
    <g id="patch_61">
     <path d="M 861.709 540.730812 
L 881.709 540.730812 
L 881.709 533.730812 
L 861.709 533.730812 
z
" style="fill: #554974; opacity: 0.9"/>
    </g>
    <g id="text_33">
     <!-- 1 Credential Employment Status -->
     <g transform="translate(889.709 540.730812) scale(0.1 -0.1)">
      <use xlink:href="#DejaVuSans-31"/>
      <use xlink:href="#DejaVuSans-20" transform="translate(63.623047 0)"/>
      <use xlink:href="#DejaVuSans-43" transform="translate(95.410156 0)"/>
      <use xlink:href="#DejaVuSans-72" transform="translate(165.234375 0)"/>
      <use xlink:href="#DejaVuSans-65" transform="translate(204.097656 0)"/>
      <use xlink:href="#DejaVuSans-64" transform="translate(265.621094 0)"/>
      <use xlink:href="#DejaVuSans-65" transform="translate(329.097656 0)"/>
      <use xlink:href="#DejaVuSans-6e" transform="translate(390.621094 0)"/>
      <use xlink:href="#DejaVuSans-74" transform="translate(454 0)"/>
      <use xlink:href="#DejaVuSans-69" transform="translate(493.208984 0)"/>
      <use xlink:href="#DejaVuSans-61" transform="translate(520.992188 0)"/>
      <use xlink:href="#DejaVuSans-6c" transform="translate(582.271484 0)"/>
      <use xlink:href="#DejaVuSans-20" transform="translate(610.054688 0)"/>
      <use xlink:href="#DejaVuSans-45" transform="translate(641.841797 0)"/>
      <use xlink:href="#DejaVuSans-6d" transform="translate(705.025391 0)"/>
      <use xlink:href="#DejaVuSans-70" transform="translate(802.4375 0)"/>
      <use xlink:href="#DejaVuSans-6c" transform="translate(865.914062 0)"/>
      <use xlink:href="#DejaVuSans-6f" transform="translate(893.697266 0)"/>
      <use xlink:href="#DejaVuSans-79" transform="translate(954.878906 0)"/>
      <use xlink:href="#DejaVuSans-6d" transform="translate(1014.058594 0)"/>
      <use xlink:href="#DejaVuSans-65" transform="translate(1111.470703 0)"/>
      <use xlink:href="#DejaVuSans-6e" transform="translate(1172.994141 0)"/>
      <use xlink:href="#DejaVuSans-74" transform="translate(1236.373047 0)"/>
      <use xlink:href="#DejaVuSans-20" transform="translate(1275.582031 0)"/>
      <use xlink:href="#DejaVuSans-53" transform="translate(1307.369141 0)"/>
      <use xlink:href="#DejaVuSans-74" transform="translate(1370.845703 0)"/>
      <use xlink:href="#DejaVuSans-61" transform="translate(1410.054688 0)"/>
      <use xlink:href="#DejaVuSans-74" transform="translate(1471.333984 0)"/>
      <use xlink:href="#DejaVuSans-75" transform="translate(1510.542969 0)"/>
      <use xlink:href="#DejaVuSans-73" transform="translate(1573.921875 0)"/>
     </g>
    </g>
   </g>
  </g>
 </g>
 <defs>
  <clipPath id="p02253542a9">
   <rect x="51.76375" y="24.14175" width="762.805" height="385.06"/>
  </clipPath>
  <clipPath id="pf1eb3ff0df">
   <rect x="51.76375" y="450.74175" width="762.805" height="385.06"/>
  </clipPath>
 </defs>
</svg>
